<?xml version="1.0" encoding="UTF-8" standalone="no"?>
<svg
   xmlns:dc="http://purl.org/dc/elements/1.1/"
   xmlns:cc="http://creativecommons.org/ns#"
   xmlns:rdf="http://www.w3.org/1999/02/22-rdf-syntax-ns#"
   xmlns:svg="http://www.w3.org/2000/svg"
   xmlns="http://www.w3.org/2000/svg"
   xmlns:sodipodi="http://sodipodi.sourceforge.net/DTD/sodipodi-0.dtd"
   xmlns:inkscape="http://www.inkscape.org/namespaces/inkscape"
   sodipodi:docname="barlow.svg"
   inkscape:version="1.0 (4035a4fb49, 2020-05-01)"
   id="svg5"
   version="1.1"
   viewBox="0 0 12.7 12.7"
   height="48"
   width="48">
  <metadata
     id="metadata9">
    <rdf:RDF>
      <cc:Work
         rdf:about="">
        <dc:format>image/svg+xml</dc:format>
        <dc:type
           rdf:resource="http://purl.org/dc/dcmitype/StillImage" />
        <dc:title></dc:title>
      </cc:Work>
    </rdf:RDF>
  </metadata>
  <sodipodi:namedview
     inkscape:document-rotation="0"
     inkscape:current-layer="g896"
     inkscape:window-maximized="1"
     inkscape:window-y="-8"
     inkscape:window-x="-8"
     inkscape:window-height="987"
     inkscape:window-width="1680"
     inkscape:cy="25.867775"
     inkscape:cx="22.346961"
     inkscape:zoom="11.573962"
     units="px"
     showgrid="false"
     inkscape:document-units="mm"
     inkscape:pagecheckerboard="1"
     inkscape:pageopacity="0"
     inkscape:pageshadow="0"
     borderopacity="1"
     bordercolor="#ffffff"
     pagecolor="#505050"
     id="namedview7" />
  <defs
     id="defs2" />
  <g
     id="layer1"
     inkscape:groupmode="layer"
     inkscape:label="Layer 1">
    <g
       style="stroke:#d45500;stroke-width:0.583081"
       transform="matrix(1.25011,1.1586814,-1.1730385,1.2656,5.684152,-9.8399472)"
       id="g896">
      <path
         d="m 6.1862942,3.2030921 a 0.41966514,1.5786277 77.956492 0 0 -1.4517745,0.7300876 0.41966514,1.5786277 77.956492 0 0 0.023869,0.056002 c -0.00758,0.014428 -0.012268,0.030412 -0.010029,0.047099 l 0.5069286,3.7764354 c 0.00565,0.042165 0.044986,0.068807 0.088184,0.059838 l 0.4048502,-0.084074 0.3401568,2.5340467 c 0.00565,0.04217 0.045293,0.06875 0.088496,0.05978 l 2.037674,-0.4231708 c 0.043201,-0.0089 0.073428,-0.05006 0.067775,-0.09222 L 7.9422581,7.3328561 8.2781792,7.263094 C 8.3213812,7.254124 8.3516032,7.213029 8.3459542,7.17087 L 7.8390203,3.3944314 c -0.00223,-0.016595 -0.010903,-0.029625 -0.021745,-0.040187 a 0.41966514,1.5786277 77.956492 0 0 0.0079,-0.062914 0.41966514,1.5786277 77.956492 0 0 -1.6011461,-0.096076 0.41966514,1.5786277 77.956492 0 0 -0.037741,0.00784 z m 0.065397,0.2077485 a 0.41964008,1.395469 77.86071 0 1 0.00125,-2.59e-4 0.41964008,1.395469 77.86071 0 1 1.421803,0.1333205 A 0.41964008,1.395469 77.86071 0 1 6.3648877,4.2445174 0.41964008,1.395469 77.86071 0 1 4.9427747,4.1112613 0.41964008,1.395469 77.86071 0 1 6.2516971,3.4108404 Z"
         style="fill:#ffffff;stroke:#ffffff;stroke-width:0.368508;stroke-linecap:round;stroke-linejoin:round"
         id="rect833" />
    </g>
  </g>
</svg>
