<?xml version="1.0" encoding="UTF-8" standalone="no"?>
<!-- Created with Inkscape (http://www.inkscape.org/) -->

<svg
   width="48"
   height="48"
   viewBox="0 0 12.7 12.7"
   version="1.1"
   id="svg5"
   inkscape:version="1.1 (c68e22c387, 2021-05-23)"
   sodipodi:docname="filter.svg"
   xmlns:inkscape="http://www.inkscape.org/namespaces/inkscape"
   xmlns:sodipodi="http://sodipodi.sourceforge.net/DTD/sodipodi-0.dtd"
   xmlns="http://www.w3.org/2000/svg"
   xmlns:svg="http://www.w3.org/2000/svg">
  <sodipodi:namedview
     id="namedview7"
     pagecolor="#505050"
     bordercolor="#ffffff"
     borderopacity="1"
     inkscape:pageshadow="0"
     inkscape:pageopacity="0"
     inkscape:pagecheckerboard="1"
     inkscape:document-units="mm"
     showgrid="false"
     units="px"
     inkscape:zoom="16.368054"
     inkscape:cx="29.478153"
     inkscape:cy="27.156558"
     inkscape:window-width="2560"
     inkscape:window-height="1377"
     inkscape:window-x="2552"
     inkscape:window-y="-8"
     inkscape:window-maximized="1"
     inkscape:current-layer="layer1" />
  <defs
     id="defs2" />
  <g
     inkscape:label="Layer 1"
     inkscape:groupmode="layer"
     id="layer1">
    <g
       id="g2409"
       transform="translate(-0.01616462,-0.74357241)">
      <path
         style="fill:#b3b3b3;stroke:#b3b3b3;stroke-width:0.264583px;stroke-linecap:butt;stroke-linejoin:miter;stroke-opacity:1"
         d="m 0.549597,6.4658469 c 3.5625832,-4.2395334 8.7265885,-3.790944 11.573866,0 C 11.331189,3.1199599 9.478605,2.7502454 6.3499999,2.6747721 1.8249988,2.744432 1.133262,4.6351644 0.549597,6.4658469 Z"
         id="path1529"
         sodipodi:nodetypes="cccc" />
      <path
         id="path924"
         style="fill:#ffffff;stroke:#ffffff;stroke-width:1.06682;stroke-linecap:round"
         d="M 24.015625,9.0761719 C 11.498659,9.0758654 1.3514465,15.940362 1.3515625,24.408203 l -0.029297,5.222656 c -1.167e-4,8.467324 10.1459065,15.331612 22.6621095,15.332032 12.516966,3.06e-4 22.66418,-6.86419 22.664063,-15.332032 l 0.0293,-5.222656 C 46.677848,15.940879 36.531828,9.0765956 24.015625,9.0761719 Z M 24,10.109375 A 21.141156,14.302183 0 0 1 45.140625,24.410156 21.141156,14.302183 0 0 1 24,38.712891 21.141156,14.302183 0 0 1 2.859375,24.410156 21.141156,14.302183 0 0 1 24,10.109375 Z"
         transform="scale(0.26458333)" />
    </g>
  </g>
</svg>
