<?xml version="1.0" encoding="UTF-8" standalone="no"?>
<svg
   sodipodi:docname="full_rig.svg"
   inkscape:version="1.1 (c68e22c387, 2021-05-23)"
   id="svg5"
   version="1.1"
   viewBox="0 0 12.7 12.7"
   height="48"
   width="48"
   xmlns:inkscape="http://www.inkscape.org/namespaces/inkscape"
   xmlns:sodipodi="http://sodipodi.sourceforge.net/DTD/sodipodi-0.dtd"
   xmlns="http://www.w3.org/2000/svg"
   xmlns:svg="http://www.w3.org/2000/svg"
   xmlns:rdf="http://www.w3.org/1999/02/22-rdf-syntax-ns#"
   xmlns:cc="http://creativecommons.org/ns#"
   xmlns:dc="http://purl.org/dc/elements/1.1/">
  <metadata
     id="metadata9">
    <rdf:RDF>
      <cc:Work
         rdf:about="">
        <dc:format>image/svg+xml</dc:format>
        <dc:type
           rdf:resource="http://purl.org/dc/dcmitype/StillImage" />
      </cc:Work>
    </rdf:RDF>
  </metadata>
  <sodipodi:namedview
     inkscape:document-rotation="0"
     inkscape:current-layer="g848"
     inkscape:window-maximized="1"
     inkscape:window-y="-8"
     inkscape:window-x="-8"
     inkscape:window-height="1377"
     inkscape:window-width="2560"
     inkscape:cy="4.7042856"
     inkscape:cx="-17.900723"
     inkscape:zoom="8.184027"
     units="px"
     showgrid="false"
     inkscape:document-units="mm"
     inkscape:pagecheckerboard="1"
     inkscape:pageopacity="0"
     inkscape:pageshadow="0"
     borderopacity="1"
     bordercolor="#ffffff"
     pagecolor="#505050"
     id="namedview7" />
  <defs
     id="defs2" />
  <g
     id="layer1"
     inkscape:groupmode="layer"
     inkscape:label="Layer 1">
    <g
       id="g848"
       transform="rotate(-4.1262576,6.0024591,1.0633962)">
      <g
         id="g1373"
         transform="translate(-0.37725114,-0.02721548)">
        <g
           style="stroke-width:0.884623"
           transform="matrix(0.83217404,0.06003432,-0.06003432,0.83217404,1.3791536,2.4850313)"
           id="g910">
          <rect
             style="fill:#ffffff;stroke:none;stroke-width:0.676737;stroke-linecap:round;stroke-linejoin:round"
             id="rect848"
             width="0.34290332"
             height="8.2754002"
             x="6.5540662"
             y="1.0843251"
             ry="0.072740838"
             transform="rotate(27.327494)" />
          <rect
             transform="matrix(-0.92135512,0.38872194,0.38872194,0.92135512,0,0)"
             ry="0.072740838"
             y="6.206862"
             x="-4.3425016"
             height="8.2754002"
             width="0.34290332"
             id="rect848-6"
             style="fill:#ffffff;stroke:none;stroke-width:0.676737;stroke-linecap:round;stroke-linejoin:round" />
          <rect
             style="fill:#ffffff;stroke:none;stroke-width:0.676738;stroke-linecap:round;stroke-linejoin:round"
             id="rect848-6-7"
             width="0.34290332"
             height="3.9777055"
             x="-6.0615768"
             y="4.1302204"
             ry="0.034964066"
             transform="matrix(-0.99999999,1.2455605e-4,5.3911035e-4,0.99999985,0,0)" />
          <ellipse
             style="fill:#ffffff;stroke:none;stroke-width:0.676737;stroke-linecap:round;stroke-linejoin:round"
             id="path880"
             cx="6.0093803"
             cy="3.5433342"
             rx="0.42577162"
             ry="0.52007002" />
          <rect
             style="fill:#ffffff;stroke:none;stroke-width:0.676737;stroke-linecap:round;stroke-linejoin:round"
             id="rect882"
             width="1.2687423"
             height="0.79439265"
             x="5.2578506"
             y="3.5890548"
             ry="0.072740838" />
          <rect
             style="fill:#ffffff;stroke:none;stroke-width:0.676737;stroke-linecap:round;stroke-linejoin:round"
             id="rect884"
             width="1.7316617"
             height="0.98298949"
             x="5.4264555"
             y="-2.2444727"
             ry="0.072740838"
             transform="rotate(37.992515)" />
          <rect
             style="fill:#ffffff;stroke:none;stroke-width:0.676737;stroke-linecap:round;stroke-linejoin:round"
             id="rect886"
             width="0.65151632"
             height="0.3829087"
             x="6.8019652"
             y="-1.7907941"
             ry="0.072740838"
             transform="rotate(38.008896)" />
          <rect
             style="fill:#ffffff;stroke:none;stroke-width:0.676737;stroke-linecap:round;stroke-linejoin:round"
             id="rect888"
             width="0.75438726"
             height="1.5316348"
             x="5.4318767"
             y="-2.2304602"
             ry="0.085502386"
             transform="rotate(35.698729)" />
          <rect
             style="fill:#ffffff;stroke:none;stroke-width:0.676737;stroke-linecap:round;stroke-linejoin:round"
             id="rect890"
             width="0.99441963"
             height="0.32004312"
             x="5.3334866"
             y="0.46923876"
             ry="0.072740838"
             transform="rotate(36.018663)" />
          <rect
             style="fill:#ffffff;stroke:none;stroke-width:0.676737;stroke-linecap:round;stroke-linejoin:round"
             id="rect892"
             width="0.11430111"
             height="2.1317155"
             x="5.7678308"
             y="-0.87951434"
             ry="0.057150554"
             transform="rotate(36.018663)" />
          <rect
             style="fill:#ffffff;stroke:none;stroke-width:0.676737;stroke-linecap:round;stroke-linejoin:round"
             id="rect894"
             width="1.0022063"
             height="0.32733351"
             x="5.1751652"
             y="-2.7624941"
             ry="0.057150528"
             transform="rotate(38.744427)" />
          <rect
             style="fill:#ffffff;stroke:none;stroke-width:0.676737;stroke-linecap:round;stroke-linejoin:round"
             id="rect896"
             width="2.2339954"
             height="0.15985331"
             x="4.651319"
             y="5.6252871"
             ry="0.079926655" />
        </g>
        <path
           sodipodi:nodetypes="sscccccccccccccccccccsss"
           d="m 8.2110359,1.9728857 c -0.00154,-0.00142 -0.00376,-0.00132 -0.00524,2.301e-4 L 8.1321345,2.0525904 7.5278962,1.4838541 C 7.414639,1.5412289 7.3596073,1.6367768 7.3002361,1.7294798 L 7.8736957,2.2609987 C 7.6472685,2.3207967 7.4515653,2.3911465 7.2147599,2.4357003 L 7.0838524,2.3114499 6.9497108,2.4561763 7.3033465,2.7839484 7.4120319,2.6666869 C 7.6279111,2.6020605 7.8621138,2.5250322 8.064109,2.4613682 l -0.00981,-0.0091 0.01192,-0.012857 0.3191953,0.2958509 0.066198,0.01464 L 8.6470949,2.9310884 8.8155383,2.7493575 8.6154396,2.5638935 8.6135933,2.5060606 8.2882779,2.199831 8.3632028,2.1189941 c 0.00147,-0.00154 0.0014,-0.0038 -1.66e-4,-0.00522 z"
           style="fill:#ffffff;stroke:#ffffff;stroke-width:0.0491421;stroke-linecap:butt;stroke-linejoin:miter;stroke-miterlimit:4;stroke-dasharray:none;stroke-opacity:1"
           id="path886" />
        <path
           d="M 4.7520309,0.11391284 C 4.1926062,0.36124574 3.8250747,0.78641579 3.598811,1.3425437 l 1.3146629,1.2185129 0.2991929,-0.013201 0.9882928,0.9160127 0.00939,0.2952229 0.5156928,0.4779768 0.3635498,-0.016041 0.5312342,0.4923816 0.2266202,-0.00999 0.1720147,0.1594343 a 0.33022214,0.32892173 42.826292 0 0 -0.00368,0.00394 0.33022214,0.32892173 42.826292 0 0 0.018917,0.4655998 0.33022214,0.32892173 42.826292 0 0 0.4653412,-0.01676 0.33022214,0.32892173 42.826292 0 0 0.022785,-0.027412 L 8.6316708,5.2834075 8.8114567,5.4500445 9.2436784,4.9837413 9.0317503,4.7873126 9.0600702,4.6646527 8.4281677,4.0789655 8.4869628,3.8256634 6.0572035,1.5736082 6.0490131,1.3160588 Z"
           style="fill:#ffffff;stroke:#ffffff;stroke-width:0.144664px;stroke-linecap:butt;stroke-linejoin:miter;stroke-opacity:1"
           id="path880-1" />
        <g
           id="g1338"
           transform="rotate(39.217022,10.443571,5.7243338)">
          <rect
             style="fill:#ffffff;stroke:none;stroke-width:0.264583;stroke-linecap:round"
             id="rect1224"
             width="0.44452697"
             height="1.3497455"
             x="9.9617853"
             y="4.8511691"
             transform="rotate(4.1262568)"
             ry="0.032329172" />
          <rect
             style="fill:#ffffff;stroke:none;stroke-width:0.264583;stroke-linecap:round"
             id="rect1248"
             width="0.80823088"
             height="0.50918543"
             x="9.3232832"
             y="5.2795315"
             transform="rotate(4.1262568)"
             ry="0.032329172" />
          <rect
             style="fill:#ffffff;stroke:none;stroke-width:0.264583;stroke-linecap:round"
             id="rect1250"
             width="0.1778108"
             height="0.30712771"
             x="10.357819"
             y="5.3522725"
             transform="rotate(4.1262568)"
             ry="0.032329172" />
          <rect
             style="fill:#ffffff;stroke:none;stroke-width:0.264583;stroke-linecap:round"
             id="rect1252"
             width="0.36370391"
             height="0.71124321"
             x="10.511382"
             y="5.1502147"
             transform="rotate(4.1262568)"
             ry="0.032329172" />
        </g>
      </g>
      <rect
         style="fill:#ffffff;stroke:none;stroke-width:0.264583;stroke-linecap:round"
         id="rect1424"
         width="0.78398395"
         height="1.438651"
         x="3.3369515"
         y="9.8897562"
         transform="rotate(-18.24827)"
         ry="0.21013987" />
    </g>
  </g>
</svg>
