<?xml version="1.0" encoding="UTF-8" standalone="no"?>
<svg
   xmlns:dc="http://purl.org/dc/elements/1.1/"
   xmlns:cc="http://creativecommons.org/ns#"
   xmlns:rdf="http://www.w3.org/1999/02/22-rdf-syntax-ns#"
   xmlns:svg="http://www.w3.org/2000/svg"
   xmlns="http://www.w3.org/2000/svg"
   xmlns:sodipodi="http://sodipodi.sourceforge.net/DTD/sodipodi-0.dtd"
   xmlns:inkscape="http://www.inkscape.org/namespaces/inkscape"
   width="48"
   height="48"
   viewBox="0 0 12.7 12.7"
   version="1.1"
   id="svg5"
   inkscape:version="1.0 (4035a4fb49, 2020-05-01)"
   sodipodi:docname="reducer.svg">
  <metadata
     id="metadata9">
    <rdf:RDF>
      <cc:Work
         rdf:about="">
        <dc:format>image/svg+xml</dc:format>
        <dc:type
           rdf:resource="http://purl.org/dc/dcmitype/StillImage" />
        <dc:title></dc:title>
      </cc:Work>
    </rdf:RDF>
  </metadata>
  <sodipodi:namedview
     id="namedview7"
     pagecolor="#505050"
     bordercolor="#ffffff"
     borderopacity="1"
     inkscape:pageshadow="0"
     inkscape:pageopacity="0"
     inkscape:pagecheckerboard="1"
     inkscape:document-units="mm"
     showgrid="false"
     units="px"
     inkscape:zoom="11.573962"
     inkscape:cx="24.519034"
     inkscape:cy="22.095906"
     inkscape:window-width="1680"
     inkscape:window-height="987"
     inkscape:window-x="-8"
     inkscape:window-y="-8"
     inkscape:window-maximized="1"
     inkscape:current-layer="g896"
     inkscape:document-rotation="0" />
  <defs
     id="defs2" />
  <g
     inkscape:label="Layer 1"
     inkscape:groupmode="layer"
     id="layer1">
    <g
       id="g896"
       transform="matrix(1.25011,1.1586814,-1.1730385,1.2656,5.684152,-9.8399472)"
       style="stroke:#d45500;stroke-width:0.583081">
      <path
         transform="matrix(0.11384582,-0.10422806,0.10551954,0.11245243,1.4785125,6.4213197)"
         d="m 24.009766,3.7285156 c -2.944603,-0.035462 -5.969979,0.314781 -9.09961,1.1582032 -0.238313,1.9e-6 -0.43164,0.1930982 -0.43164,0.4316406 v 1.453125 C 13.327876,7.3667872 12.272367,8.1141849 11.363281,9.0429688 11.174057,9.2362928 10.914002,9.2633057 10.875,9.53125 L 6.5058594,39.527344 c -0.039028,0.268015 0.2177816,0.489981 0.4882812,0.490234 l 1.9863282,0.002 v 2.441407 c 0,0.270804 0.2177621,0.488281 0.4882812,0.488281 h 27.798828 c 0.270519,0 0.488281,-0.217477 0.488281,-0.488281 v -2.416016 l 2.353516,0.002 c 0.270519,2.59e-4 0.514844,-0.218839 0.488281,-0.488281 L 37.634766,9.53125 C 37.608177,9.2617882 37.330597,9.2411693 37.146484,9.0429688 36.329052,8.1629934 34.870125,7.3187774 33.052734,6.6171875 V 5.3183594 c 0,-0.2385359 -0.200447,-0.3737965 -0.43164,-0.4316406 C 29.816725,4.1851454 26.954368,3.7639779 24.009766,3.7285156 Z"
         style="fill:#ffffff;stroke:#ffffff;stroke-width:2.38866;stroke-linecap:round;stroke-linejoin:round"
         id="rect846" />
    </g>
  </g>
</svg>
