<?xml version="1.0" standalone="no"?>
<!DOCTYPE svg PUBLIC "-//W3C//DTD SVG 20010904//EN"
 "http://www.w3.org/TR/2001/REC-SVG-20010904/DTD/svg10.dtd">
<svg version="1.0" xmlns="http://www.w3.org/2000/svg"
 width="700.000000pt" height="700.000000pt" viewBox="0 0 700.000000 700.000000"
 preserveAspectRatio="xMidYMid meet">
<metadata>
Created by potrace 1.14, written by Peter Selinger 2001-2017
</metadata>
<g transform="translate(0.000000,700.000000) scale(0.100000,-0.100000)"
fill="#000000" stroke="none">
<path d="M1876 6491 c-30 -58 -29 -57 -86 -66 -25 -4 -49 -9 -54 -12 -5 -3 10
-23 33 -44 40 -37 42 -41 36 -82 -3 -23 -9 -50 -12 -61 -3 -10 -1 -17 3 -14 5
2 31 15 57 28 l48 24 47 -24 c26 -14 51 -26 56 -28 4 -3 6 4 3 14 -3 11 -8 37
-11 59 -6 37 -3 43 35 83 23 24 40 44 38 46 -2 2 -29 7 -59 12 -52 9 -55 11
-82 62 l-27 53 -25 -50z"/>
<path d="M6359 6519 c-3 -13 -9 -54 -19 -120 l-12 -75 -90 -46 -90 -45 90 -43
90 -43 11 -62 c6 -34 11 -71 11 -83 0 -58 11 -56 84 17 l72 72 50 -10 c27 -5
70 -12 95 -16 l47 -6 -46 89 -45 88 45 87 c25 48 40 87 34 87 -6 0 -49 -7 -96
-15 -47 -8 -86 -15 -88 -15 -1 0 -34 32 -72 71 -39 39 -70 70 -71 68z"/>
<path d="M4785 5879 c-65 -27 -126 -47 -135 -44 -8 2 -32 7 -54 11 -21 3 -48
8 -60 10 -11 2 -37 7 -56 10 -19 3 -43 7 -52 10 -26 8 -23 -6 30 -134 40 -97
47 -123 41 -152 -4 -19 -9 -48 -12 -65 -3 -16 -10 -59 -17 -94 -6 -34 -10 -64
-8 -66 2 -1 57 20 123 47 100 40 127 47 160 42 22 -3 49 -8 60 -9 34 -5 88
-16 128 -24 22 -6 37 -5 37 1 0 5 -21 60 -46 121 -25 62 -46 119 -46 127 0 16
6 52 28 170 16 87 16 90 7 89 -5 0 -62 -23 -128 -50z"/>
<path d="M1390 5774 c-198 -68 -465 -145 -489 -141 -32 5 -494 125 -517 134
-13 5 -15 2 -9 -18 5 -13 43 -136 87 -272 l78 -249 -16 -61 c-9 -34 -17 -69
-19 -77 -2 -8 -27 -102 -55 -209 -28 -106 -49 -195 -46 -198 4 -4 195 54 426
130 67 22 85 26 110 29 14 1 97 -20 370 -92 63 -17 129 -33 147 -37 l32 -5
-23 73 c-13 41 -51 162 -85 270 l-62 196 71 273 c39 149 70 273 68 274 -2 2
-32 -7 -68 -20z"/>
<path d="M3059 5080 c-1 -11 -2 -28 -3 -37 -3 -25 -16 -140 -22 -188 -10 -81
-22 -194 -28 -250 -3 -22 -8 -69 -11 -105 -4 -36 -8 -72 -10 -80 -2 -8 -6 -51
-11 -95 -4 -44 -9 -83 -10 -87 -1 -5 -2 -12 -3 -18 0 -5 -5 -10 -10 -10 -5 0
-40 -17 -78 -38 -37 -22 -102 -57 -143 -79 -41 -22 -147 -80 -235 -128 -88
-49 -191 -105 -230 -126 -77 -41 -87 -54 -54 -64 12 -4 54 -22 93 -40 39 -18
98 -45 131 -60 33 -15 107 -49 165 -75 58 -26 168 -76 245 -111 77 -34 143
-67 146 -72 3 -4 13 -50 23 -100 9 -51 18 -103 21 -117 10 -51 46 -246 51
-270 2 -14 9 -47 14 -75 5 -27 12 -63 15 -80 3 -16 7 -39 9 -50 2 -11 9 -49
16 -85 18 -102 17 -100 62 -50 59 65 204 224 268 293 30 32 61 67 70 77 8 9
53 59 100 110 47 51 93 101 102 112 18 22 39 21 208 -2 36 -5 88 -12 115 -15
28 -3 61 -7 75 -10 14 -2 50 -6 80 -10 30 -4 66 -8 80 -10 14 -2 48 -6 75 -10
62 -7 101 -12 190 -25 39 -5 73 -10 77 -10 4 0 -35 73 -86 163 -51 89 -104
182 -118 207 -37 67 -62 111 -150 263 -56 99 -77 145 -72 159 3 11 35 81 71
156 135 284 246 519 270 572 14 30 27 58 29 61 2 4 -45 -4 -104 -17 -59 -12
-118 -25 -132 -28 -14 -2 -163 -33 -331 -68 l-307 -62 -68 65 c-38 36 -105 99
-149 141 -106 99 -220 207 -330 312 -49 47 -93 86 -97 86 -5 0 -9 -9 -9 -20z"/>
<path d="M5245 2547 l-71 -152 -59 -12 c-33 -6 -78 -14 -100 -18 -22 -3 -53
-8 -70 -11 -16 -3 -47 -9 -69 -12 l-38 -7 126 -119 c69 -65 124 -122 122 -125
-3 -3 -7 -33 -10 -66 -4 -33 -11 -85 -16 -115 -16 -100 -20 -140 -11 -140 4 0
71 36 149 79 l141 79 151 -74 c84 -41 154 -74 156 -74 2 0 1 6 -1 13 -3 6 -16
71 -30 142 -13 72 -27 141 -29 154 -5 20 12 42 97 130 56 58 111 113 121 123
14 14 16 18 5 19 -8 1 -23 3 -34 4 -61 8 -120 16 -162 20 -93 11 -128 17 -135
23 -3 4 -25 43 -48 87 -52 99 -110 205 -113 205 -1 0 -34 -69 -72 -153z"/>
<path d="M1415 2107 l7 -166 -81 -141 c-45 -78 -81 -143 -81 -144 0 -3 48 -1
229 9 l95 5 139 -80 c76 -44 141 -80 144 -80 3 0 2 72 -1 160 l-7 161 29 52
c16 29 43 76 61 105 17 29 40 71 51 92 l20 38 -78 -3 c-253 -11 -243 -12 -324
35 -40 24 -98 56 -128 73 -30 16 -61 35 -69 41 -11 8 -12 -17 -6 -157z"/>
<path d="M3595 923 c3 -16 8 -50 11 -78 3 -27 7 -55 9 -61 2 -6 -19 -31 -47
-55 -28 -24 -59 -51 -70 -60 -17 -16 -16 -17 24 -27 24 -6 64 -14 89 -17 l47
-7 39 -85 38 -86 44 82 c24 44 49 81 55 81 42 2 133 13 148 19 15 6 12 13 -25
52 -82 87 -77 76 -62 149 8 36 14 75 15 88 0 22 -1 22 -70 -13 -76 -38 -96
-42 -125 -21 -26 17 -114 66 -121 66 -2 0 -2 -12 1 -27z"/>
</g>
</svg>
